<svg xmlns="http://www.w3.org/2000/svg" xmlns:xlink="http://www.w3.org/1999/xlink" width="79" height="80" viewBox="0 0 79 80">
  <metadata><?xpacket begin="﻿" id="W5M0MpCehiHzreSzNTczkc9d"?>
<x:xmpmeta xmlns:x="adobe:ns:meta/" x:xmptk="Adobe XMP Core 5.6-c138 79.159824, 2016/09/14-01:09:01        ">
   <rdf:RDF xmlns:rdf="http://www.w3.org/1999/02/22-rdf-syntax-ns#">
      <rdf:Description rdf:about=""/>
   </rdf:RDF>
</x:xmpmeta>
                                                                                                    
                                                                                                    
                                                                                                    
                                                                                                    
                                                                                                    
                                                                                                    
                                                                                                    
                                                                                                    
                                                                                                    
                                                                                                    
                                                                                                    
                                                                                                    
                                                                                                    
                                                                                                    
                                                                                                    
                                                                                                    
                                                                                                    
                                                                                                    
                                                                                                    
                                                                                                    
                           
<?xpacket end="w"?></metadata>
<defs>
    <style>
      .cls-1 {
        fill-rule: evenodd;
        filter: url(#filter);
      }
    </style>
    <filter id="filter" x="715" y="824" width="79" height="80" filterUnits="userSpaceOnUse">
      <feFlood result="flood" flood-color="#ff6800"/>
      <feComposite result="composite" operator="in" in2="SourceGraphic"/>
      <feBlend result="blend" in2="SourceGraphic"/>
    </filter>
  </defs>
  <path class="cls-1" d="M781.329,864.691a1.256,1.256,0,0,0-1.123-.691H727.54a1.257,1.257,0,0,0-1.123.691l-6.269,12.5A1.25,1.25,0,0,0,721.27,879h5.016v18.75a6.267,6.267,0,0,0,6.27,6.25H775.19a6.267,6.267,0,0,0,6.27-6.25V879h5.016a1.25,1.25,0,0,0,1.122-1.809ZM728.315,866.5h37.323l-5.016,10H723.3Zm0.479,31.25V879h32.6a1.255,1.255,0,0,0,1.122-.691l3.894-7.764V901.5H732.556A3.76,3.76,0,0,1,728.794,897.75Zm50.158,0a3.76,3.76,0,0,1-3.762,3.75h-6.269V870.545l3.893,7.764a1.255,1.255,0,0,0,1.122.691h5.016v18.75Zm-4.241-21.25-5.015-10h9.735l5.016,10h-9.736Zm-27.108,5a7.491,7.491,0,0,0-3.735,14,1.253,1.253,0,0,0,1.227,1h5.016a1.254,1.254,0,0,0,1.228-1A7.492,7.492,0,0,0,747.6,881.5Zm2,12.077a1.242,1.242,0,0,0-.52.423h-0.231v-3.75h1.254v-2.5H745.1v2.5h1.254V894h-0.23a1.251,1.251,0,0,0-.521-0.423A5.016,5.016,0,1,1,749.608,893.577ZM745.1,897.75h5.016v2.5H745.1v-2.5Zm-10.031-10h2.507v2.5h-2.507v-2.5Zm22.571,0h2.508v2.5h-2.508v-2.5Zm-19.786-6.705,1.773-1.768,1.774,1.768-1.774,1.768Zm15.96,15.91,1.774-1.768,1.773,1.768-1.773,1.767Zm-15.96,0,1.773-1.768,1.774,1.768-1.774,1.767Zm15.96-15.91,1.774-1.768,1.773,1.768-1.773,1.768ZM735.064,861.5a6.25,6.25,0,1,0-6.27-6.25A6.267,6.267,0,0,0,735.064,861.5Zm0-10a3.75,3.75,0,1,1-3.762,3.75A3.76,3.76,0,0,1,735.064,851.5Zm36.365,10a6.25,6.25,0,1,0-6.27-6.25A6.267,6.267,0,0,0,771.429,861.5Zm0-10a3.75,3.75,0,1,1-3.762,3.75A3.76,3.76,0,0,1,771.429,851.5Zm-37.619-5h2.508a15.041,15.041,0,0,0-15.048-15V834A12.535,12.535,0,0,1,733.81,846.5Zm36.365,0h2.507a16.3,16.3,0,0,1,16.3-16.25v-2.5A18.8,18.8,0,0,0,770.175,846.5Zm-17.556-6.25h2.508a16.3,16.3,0,0,0-16.3-16.25v2.5A13.788,13.788,0,0,1,752.619,840.25ZM763.905,839a10.027,10.027,0,0,1,10.031-10v-2.5A12.534,12.534,0,0,0,761.4,839h2.508Zm-42.635,3.75a6.267,6.267,0,0,1,6.27,6.25h2.508a8.774,8.774,0,0,0-8.778-8.75v2.5ZM742.587,844H745.1a20.055,20.055,0,0,0-20.063-20v2.5A17.547,17.547,0,0,1,742.587,844Zm-26.333-12.5h2.508V834h-2.508v-2.5Zm0,8.75h2.508v2.5h-2.508v-2.5ZM720.016,824h2.508v2.5h-2.508V824ZM715,824h2.508v2.5H715V824Zm27.587,22.5H745.1V849h-2.508v-2.5Zm18.81-5h2.508V844H761.4v-2.5Zm30.095-13.75H794v2.5h-2.508v-2.5Zm-28.841-1.25V824a7.519,7.519,0,0,0-7.524,7.5h2.508A5.013,5.013,0,0,1,762.651,826.5Zm1.254,20h2.508V849h-2.508v-2.5Zm-11.286-3.75h2.508v2.5h-2.508v-2.5Zm0,6.376a6.27,6.27,0,1,0,2.508,0V847.75h-2.508v1.376Zm5.016,6.124a3.762,3.762,0,1,1-3.762-3.75A3.76,3.76,0,0,1,757.635,855.25Z" transform="translate(-715 -824)"/>
</svg>
