<svg xmlns="http://www.w3.org/2000/svg" width="74" height="74" viewBox="0 0 74 74">
  <metadata><?xpacket begin="﻿" id="W5M0MpCehiHzreSzNTczkc9d"?>
<x:xmpmeta xmlns:x="adobe:ns:meta/" x:xmptk="Adobe XMP Core 5.6-c138 79.159824, 2016/09/14-01:09:01        ">
   <rdf:RDF xmlns:rdf="http://www.w3.org/1999/02/22-rdf-syntax-ns#">
      <rdf:Description rdf:about=""/>
   </rdf:RDF>
</x:xmpmeta>
                                                                                                    
                                                                                                    
                                                                                                    
                                                                                                    
                                                                                                    
                                                                                                    
                                                                                                    
                                                                                                    
                                                                                                    
                                                                                                    
                                                                                                    
                                                                                                    
                                                                                                    
                                                                                                    
                                                                                                    
                                                                                                    
                                                                                                    
                                                                                                    
                                                                                                    
                                                                                                    
                           
<?xpacket end="w"?></metadata>
<defs>
    <style>
      .cls-1 {
        fill: #ff6800;
        fill-rule: evenodd;
      }
    </style>
  </defs>
  <path class="cls-1" d="M1022.3,264.051a1.232,1.232,0,0,0-1.23,1.234V280.7a1.231,1.231,0,0,0,1.23,1.233h37a1.231,1.231,0,0,0,1.23-1.233V265.285a1.235,1.235,0,0,0-2.47,0v14.183H1040.8V263.435a1.232,1.232,0,0,0-1.23-1.234h-9.87a1.232,1.232,0,0,0-1.23,1.234v16.033h-4.94V265.285A1.232,1.232,0,0,0,1022.3,264.051Zm8.63,0.617h7.4v6.166h-1.23a1.234,1.234,0,0,0,0,2.467h1.23v6.167h-7.4v-14.8h0Zm-11.57-1.327a1.225,1.225,0,0,0,1.34-.268l20.1-20.1,20.09,20.1a1.235,1.235,0,0,0,2.11-.872V243.7a1.233,1.233,0,0,0-1.24-1.233h-12.33a1.233,1.233,0,0,0,0,2.466h11.1v14.288l-18.85-18.86a1.278,1.278,0,0,0-1.75,0l-18.86,18.861V244.935h6.16a1.24,1.24,0,0,0,1.24-1.233v-1.233h2.46V243.7a1.235,1.235,0,0,0,2.47,0v-2.467a1.232,1.232,0,0,0-1.23-1.233h-4.94a1.232,1.232,0,0,0-1.23,1.233v1.233h-6.17a1.232,1.232,0,0,0-1.23,1.234v18.5A1.234,1.234,0,0,0,1019.36,263.341Zm32.54,11.194a1.232,1.232,0,0,0,1.23-1.234v-9.866a1.232,1.232,0,0,0-1.23-1.234h-7.4a1.232,1.232,0,0,0-1.23,1.234V273.3a1.232,1.232,0,0,0,1.23,1.234h7.4Zm-6.17-9.867h4.93v7.4h-4.93v-7.4Zm-50.564,41.316a1.85,1.85,0,1,0-1.849,1.85A1.852,1.852,0,0,0,995.166,305.984ZM1062.34,291.8a4.916,4.916,0,0,0-6.66-1.846l-14.2,6.909c-2.21,1.1-4.43,1.1-9.31,1.1a95.064,95.064,0,0,1-12.14-1.216,1.232,1.232,0,0,0-.4,2.432,95,95,0,0,0,12.54,1.251c5.12,0,7.69,0,10.4-1.358l14.26-6.945a2.467,2.467,0,1,1,2.43,4.294L1042.59,306.8c-0.04.023-3.59,2.264-11.66,2.264-6.99,0-17.79-5.952-17.95-6.037-0.11-.054-2.78-1.363-7.95-1.363a1.234,1.234,0,0,0,0,2.467,17.428,17.428,0,0,1,6.8,1.079h0c0.47,0.259,11.47,6.322,19.1,6.322,8.91,0,12.86-2.565,12.99-2.653l16.61-10.341A4.936,4.936,0,0,0,1062.34,291.8Zm-57.31-4.934h9.87c1.44,0,3.88,1.836,6.04,3.454,2.71,2.03,5.26,3.946,7.53,3.946h7.4a4.251,4.251,0,0,1,2.82.872,1.235,1.235,0,1,0,1.75-1.744,6.579,6.579,0,0,0-4.57-1.594h-7.4c-1.44,0-3.89-1.836-6.05-3.454-2.7-2.03-5.26-3.946-7.52-3.946h-9.87A1.233,1.233,0,0,0,1005.03,286.867Zm-7.4-7.4h-7.4a1.233,1.233,0,1,0,0,2.466h7.4a1.234,1.234,0,0,1,1.233,1.233V310.3a1.234,1.234,0,0,1-1.233,1.233h-7.4a1.234,1.234,0,0,0,0,2.467h7.4a3.7,3.7,0,0,0,3.7-3.7V283.168A3.7,3.7,0,0,0,997.633,279.468Z" transform="translate(-989 -240)"/>
</svg>
