<svg xmlns="http://www.w3.org/2000/svg" xmlns:xlink="http://www.w3.org/1999/xlink" width="71" height="71" viewBox="0 0 71 71">
  <metadata><?xpacket begin="﻿" id="W5M0MpCehiHzreSzNTczkc9d"?>
<x:xmpmeta xmlns:x="adobe:ns:meta/" x:xmptk="Adobe XMP Core 5.6-c138 79.159824, 2016/09/14-01:09:01        ">
   <rdf:RDF xmlns:rdf="http://www.w3.org/1999/02/22-rdf-syntax-ns#">
      <rdf:Description rdf:about=""/>
   </rdf:RDF>
</x:xmpmeta>
                                                                                                    
                                                                                                    
                                                                                                    
                                                                                                    
                                                                                                    
                                                                                                    
                                                                                                    
                                                                                                    
                                                                                                    
                                                                                                    
                                                                                                    
                                                                                                    
                                                                                                    
                                                                                                    
                                                                                                    
                                                                                                    
                                                                                                    
                                                                                                    
                                                                                                    
                                                                                                    
                           
<?xpacket end="w"?></metadata>
<defs>
    <style>
      .cls-1 {
        fill-rule: evenodd;
        filter: url(#filter);
      }
    </style>
    <filter id="filter" x="699" y="784" width="71" height="71" filterUnits="userSpaceOnUse">
      <feFlood result="flood" flood-color="#fff"/>
      <feComposite result="composite" operator="in" in2="SourceGraphic"/>
      <feBlend result="blend" in2="SourceGraphic"/>
    </filter>
  </defs>
  <path class="cls-1" d="M745.478,784l4.58,4.581-27.852,27.852a19.5,19.5,0,1,0,15.361,15.361l27.852-27.852,4.581,4.58V784H745.478Zm-9.891,52.679a17.025,17.025,0,0,1-1.723,6.422l-1.931-1.116-1.146,1.984,1.944,1.122a17.287,17.287,0,0,1-4.706,4.705l-1.122-1.943L724.92,849l1.115,1.932a17.019,17.019,0,0,1-6.422,1.722v-2.233h-2.29v2.232a17.005,17.005,0,0,1-6.423-1.722L712.016,849l-1.983-1.145L708.91,849.8a17.3,17.3,0,0,1-4.706-4.706l1.943-1.123L705,841.983,703.07,843.1a17,17,0,0,1-1.721-6.421h2.232v-2.29h-2.232a17,17,0,0,1,1.722-6.422L705,829.08l1.145-1.983-1.943-1.122a17.294,17.294,0,0,1,4.706-4.707l1.123,1.943,1.983-1.145-1.115-1.932a17.032,17.032,0,0,1,6.422-1.722v2.233h2.29v-2.232a17.02,17.02,0,0,1,6.422,1.723l-1.115,1.931,1.983,1.146,1.122-1.944a17.3,17.3,0,0,1,4.707,4.707L730.79,827.1l1.145,1.984,1.932-1.116a17.037,17.037,0,0,1,1.722,6.422h-2.234v2.291h2.232Zm32.123-33.685-2.291-2.291-28.544,28.545a19.535,19.535,0,0,0-12.123-12.123L753.3,788.581l-2.291-2.291h16.7v16.7Zm-46.952,22.232h-1.145v-2.291h-2.29v2.291h-1.146a5.726,5.726,0,0,0,0,11.451h4.581a3.436,3.436,0,1,1,0,6.871h-4.581a3.439,3.439,0,0,1-3.435-3.435v-1.145h-2.29v1.145a5.732,5.732,0,0,0,5.725,5.726h1.146v2.29h2.29v-2.29h1.145a5.726,5.726,0,0,0,0-11.452h-4.581a3.436,3.436,0,0,1,0-6.871h4.581a3.44,3.44,0,0,1,3.436,3.436V832.1h2.29v-1.145A5.732,5.732,0,0,0,720.758,825.226Zm29.441,5.389L748.579,829l14.887-14.887,1.62,1.619Zm-6.2,2.962,2.29-2.29,1.619,1.62-2.29,2.29Zm0.475,14.221-1.62-1.62,19.466-19.466,1.62,1.62Zm-4.581,4.572-1.62-1.619,2.29-2.29,1.62,1.619Zm-1.145-60.689L725,805.423l-1.619-1.62,13.742-13.742Zm-16.032,16.032-2.29,2.29-1.619-1.619,2.29-2.29Zm2.962-17.647,1.619,1.619-14.887,14.887-1.619-1.619ZM708.5,807.238l1.619,1.619-2.29,2.29-1.619-1.619Z" transform="translate(-699 -784)"/>
</svg>
