<svg xmlns="http://www.w3.org/2000/svg" xmlns:xlink="http://www.w3.org/1999/xlink" width="191" height="199" viewBox="0 0 191 199">
  <metadata><?xpacket begin="﻿" id="W5M0MpCehiHzreSzNTczkc9d"?>
<x:xmpmeta xmlns:x="adobe:ns:meta/" x:xmptk="Adobe XMP Core 5.6-c138 79.159824, 2016/09/14-01:09:01        ">
   <rdf:RDF xmlns:rdf="http://www.w3.org/1999/02/22-rdf-syntax-ns#">
      <rdf:Description rdf:about=""/>
   </rdf:RDF>
</x:xmpmeta>
                                                                                                    
                                                                                                    
                                                                                                    
                                                                                                    
                                                                                                    
                                                                                                    
                                                                                                    
                                                                                                    
                                                                                                    
                                                                                                    
                                                                                                    
                                                                                                    
                                                                                                    
                                                                                                    
                                                                                                    
                                                                                                    
                                                                                                    
                                                                                                    
                                                                                                    
                                                                                                    
                           
<?xpacket end="w"?></metadata>
<defs>
    <style>
      .cls-1 {
        fill-rule: evenodd;
        filter: url(#filter);
      }
    </style>
    <filter id="filter" x="148" y="217" width="191" height="199" filterUnits="userSpaceOnUse">
      <feFlood result="flood" flood-color="#fff"/>
      <feComposite result="composite" operator="in" in2="SourceGraphic"/>
      <feBlend result="blend" in2="SourceGraphic"/>
    </filter>
  </defs>
  <path id="Forma_1" data-name="Forma 1" class="cls-1" d="M175,258.457a5.005,5.005,0,0,0,7.02-.944,77.238,77.238,0,0,1,122.963,0,5.01,5.01,0,1,0,7.963-6.083,87.248,87.248,0,0,0-138.888,0A5.016,5.016,0,0,0,175,258.457ZM296.743,285.2a15.644,15.644,0,1,0,15.644-15.658A15.669,15.669,0,0,0,296.743,285.2ZM328.4,306.054l-3.977-1.223a4.68,4.68,0,0,0-4.173.728l-7.859,5.89-7.86-5.89a4.674,4.674,0,0,0-4.172-.728l-3.978,1.223a15.5,15.5,0,0,0-10.6,14.725V344.45a4.667,4.667,0,0,0,.768,2.569l7.932,12.082v31.727a4.676,4.676,0,0,0,4.674,4.679h26.478a4.676,4.676,0,0,0,4.674-4.679V359.1l7.931-12.082A4.673,4.673,0,0,0,339,344.45V320.779A15.5,15.5,0,0,0,328.4,306.054Zm-153.783-5.2A15.658,15.658,0,1,0,158.968,285.2,15.669,15.669,0,0,0,174.613,300.858Zm16.009,5.2-3.977-1.223a4.68,4.68,0,0,0-4.173.728l-7.859,5.89-7.86-5.89a4.673,4.673,0,0,0-4.172-.728l-3.978,1.223A15.5,15.5,0,0,0,148,320.779V344.45a4.667,4.667,0,0,0,.768,2.569L156.7,359.1v31.727a4.676,4.676,0,0,0,4.674,4.679h26.477a4.677,4.677,0,0,0,4.675-4.679V359.1l7.931-12.082a4.681,4.681,0,0,0,.768-2.569V320.779A15.5,15.5,0,0,0,190.622,306.054Zm73.055-42.922a20.178,20.178,0,1,0-20.177,20.2A20.21,20.21,0,0,0,263.677,263.132Zm1.985,29.984-0.033-.01-5.759-1.769a1.788,1.788,0,0,0-2.206,1.1l-12.11,33.257a2.186,2.186,0,0,1-4.108,0l-12.11-33.257a1.788,1.788,0,0,0-1.679-1.179c-0.173,0-6.279,1.846-6.279,1.846a17.892,17.892,0,0,0-12.272,17v35.18a1.8,1.8,0,0,0,.294.984l12.636,19.245v48.7a1.789,1.789,0,0,0,1.789,1.79h39.35a1.789,1.789,0,0,0,1.789-1.79v-48.7L277.6,346.266a1.8,1.8,0,0,0,.294-0.984V310.009A17.777,17.777,0,0,0,265.662,293.116Zm-17.431-.7a2.665,2.665,0,0,0-1.972-.82H240.74a2.665,2.665,0,0,0-1.972.82,2.565,2.565,0,0,0-.338,3.019l2.95,4.452L240,311.548l2.72,7.242a0.83,0.83,0,0,0,1.56,0l2.72-7.242-1.381-11.661,2.95-4.452A2.564,2.564,0,0,0,248.231,292.416Z" transform="translate(-148 -217)"/>
</svg>
