<svg xmlns="http://www.w3.org/2000/svg" xmlns:xlink="http://www.w3.org/1999/xlink" width="187" height="199" viewBox="0 0 187 199">
  <metadata><?xpacket begin="﻿" id="W5M0MpCehiHzreSzNTczkc9d"?>
<x:xmpmeta xmlns:x="adobe:ns:meta/" x:xmptk="Adobe XMP Core 5.6-c138 79.159824, 2016/09/14-01:09:01        ">
   <rdf:RDF xmlns:rdf="http://www.w3.org/1999/02/22-rdf-syntax-ns#">
      <rdf:Description rdf:about=""/>
   </rdf:RDF>
</x:xmpmeta>
                                                                                                    
                                                                                                    
                                                                                                    
                                                                                                    
                                                                                                    
                                                                                                    
                                                                                                    
                                                                                                    
                                                                                                    
                                                                                                    
                                                                                                    
                                                                                                    
                                                                                                    
                                                                                                    
                                                                                                    
                                                                                                    
                                                                                                    
                                                                                                    
                                                                                                    
                                                                                                    
                           
<?xpacket end="w"?></metadata>
<defs>
    <style>
      .cls-1 {
        fill-rule: evenodd;
        filter: url(#filter);
      }
    </style>
    <filter id="filter" x="674" y="217" width="187" height="199" filterUnits="userSpaceOnUse">
      <feFlood result="flood" flood-color="#fff"/>
      <feComposite result="composite" operator="in" in2="SourceGraphic"/>
      <feBlend result="blend" in2="SourceGraphic"/>
    </filter>
  </defs>
  <path id="Forma_1" data-name="Forma 1" class="cls-1" d="M775,259.9c-0.254-4.748-5.094-3.94-9.816-3.94A41.719,41.719,0,0,1,775,259.9ZM724.515,248c-18.333,0-26.771,23.261-12.116,34.96,5-13.372,14.941-22.974,27.979-26.764A19.543,19.543,0,0,0,724.515,248Zm-37.873,31.32a40.834,40.834,0,0,0,2.865,6.893l-6.022,6.04a4.165,4.165,0,0,0,0,5.877L694.1,308.773a4.156,4.156,0,0,0,5.867,0l6.015-6.04c0.9,0.48,1.9.773,2.839,1.186,0-.069-0.007-0.14-0.007-0.209a62.04,62.04,0,0,1,1.572-13.964,26.229,26.229,0,1,1,36.9-34.96,45.573,45.573,0,0,1,14.8.433,39.68,39.68,0,0,0-2.559-6.157l6.022-6.043a4.143,4.143,0,0,0,0-5.874l-10.609-10.637a4.125,4.125,0,0,0-5.853,0l-6.041,6.043a38.709,38.709,0,0,0-6.879-2.862v-8.538A4.14,4.14,0,0,0,732.024,217H717.011a4.154,4.154,0,0,0-4.145,4.151v8.537a39.119,39.119,0,0,0-6.879,2.863l-6.021-6.037a4.139,4.139,0,0,0-5.86,0l-10.621,10.637a4.178,4.178,0,0,0,0,5.877l6.022,6.04a39.763,39.763,0,0,0-2.852,6.893h-8.51A4.149,4.149,0,0,0,674,260.116v15.049a4.151,4.151,0,0,0,4.145,4.155h8.5Zm130.047,80.527a21.366,21.366,0,1,0-21.5-36.9,77.419,77.419,0,0,1-9.121,21.89A64.067,64.067,0,0,1,816.689,359.847Zm44.3-26.865a4.479,4.479,0,0,0-4.469-4.484h-9.185a42.681,42.681,0,0,0-3.093-7.443l6.5-6.518a4.483,4.483,0,0,0,0-6.34L839.3,296.72a4.452,4.452,0,0,0-6.32,0l-6.516,6.521a41.768,41.768,0,0,0-7.425-3.09v-9.207a4.47,4.47,0,0,0-4.463-4.481H798.383a4.4,4.4,0,0,0-2.819,1.081,61.171,61.171,0,0,1,2.111,16.166,77.88,77.88,0,0,1-.818,11.08,27.619,27.619,0,0,1,9.621-1.813,28.094,28.094,0,0,1,15.148,51.734,64.143,64.143,0,0,1,13.038,21.795,4.585,4.585,0,0,0,1.481.287,4.46,4.46,0,0,0,3.164-1.312L850.762,374a4.516,4.516,0,0,0,0-6.339l-6.516-6.522a42.337,42.337,0,0,0,3.093-7.443h9.185A4.486,4.486,0,0,0,861,349.215Zm-35.449,57.582a54.137,54.137,0,0,0-46.481-36.49c-7.093,7.531-15.876,12.308-25.823,12.308s-18.728-4.777-25.815-12.308a54.139,54.139,0,0,0-46.494,36.493L677.092,401.9A10.673,10.673,0,0,0,687.174,416H819.3A10.665,10.665,0,0,0,829.382,401.9ZM718.791,303.71c0,25.407,15.429,52.67,34.449,52.67S787.7,329.117,787.7,303.71C787.7,251.045,718.791,250.94,718.791,303.71Z" transform="translate(-674 -217)"/>
</svg>
