<svg xmlns="http://www.w3.org/2000/svg" xmlns:xlink="http://www.w3.org/1999/xlink" width="152" height="202" viewBox="0 0 152 202">
  <metadata><?xpacket begin="﻿" id="W5M0MpCehiHzreSzNTczkc9d"?>
<x:xmpmeta xmlns:x="adobe:ns:meta/" x:xmptk="Adobe XMP Core 5.6-c138 79.159824, 2016/09/14-01:09:01        ">
   <rdf:RDF xmlns:rdf="http://www.w3.org/1999/02/22-rdf-syntax-ns#">
      <rdf:Description rdf:about=""/>
   </rdf:RDF>
</x:xmpmeta>
                                                                                                    
                                                                                                    
                                                                                                    
                                                                                                    
                                                                                                    
                                                                                                    
                                                                                                    
                                                                                                    
                                                                                                    
                                                                                                    
                                                                                                    
                                                                                                    
                                                                                                    
                                                                                                    
                                                                                                    
                                                                                                    
                                                                                                    
                                                                                                    
                                                                                                    
                                                                                                    
                           
<?xpacket end="w"?></metadata>
<defs>
    <style>
      .cls-1 {
        fill-rule: evenodd;
        filter: url(#filter);
      }
    </style>
    <filter id="filter" x="1091" y="236" width="152" height="202" filterUnits="userSpaceOnUse">
      <feFlood result="flood" flood-color="#fff"/>
      <feComposite result="composite" operator="in" in2="SourceGraphic"/>
      <feBlend result="blend" in2="SourceGraphic"/>
    </filter>
  </defs>
  <path id="Forma_1" data-name="Forma 1" class="cls-1" d="M1217.67,311.75c0,25.25-25.34,50.105-25.34,75.75h-50.66c0-24.855-25.34-50.5-25.34-75.75A50.67,50.67,0,0,1,1217.67,311.75Zm-31.67,101h-38a6.313,6.313,0,1,0,0,12.625h1.16a18.917,18.917,0,0,0,35.68,0H1186A6.313,6.313,0,1,0,1186,412.75Zm0-18.937h-38a6.312,6.312,0,1,0,0,12.624h38A6.312,6.312,0,1,0,1186,393.813Zm-87.99-114.464,11.37,6.535a63.234,63.234,0,0,1,6.37-10.911l-11.4-6.572Zm75.32-30.083V236h-12.66v13.266A31.575,31.575,0,0,1,1173.33,249.266Zm-32.28,5.055-6.56-11.33-10.98,6.312,6.59,11.368A63.045,63.045,0,0,1,1141.05,254.321Zm94.94,25.028-6.34-10.948-11.4,6.571a63.32,63.32,0,0,1,6.38,10.911ZM1210.48,249.3l-10.96-6.312-6.56,11.33a63.675,63.675,0,0,1,10.94,6.338ZM1103.67,311.75a59.683,59.683,0,0,1,.64-6.313H1091v12.626h13.33A55.132,55.132,0,0,1,1103.67,311.75Zm126.02-6.313a59.683,59.683,0,0,1,.64,6.313,55.132,55.132,0,0,1-.66,6.313H1243V305.437h-13.31Zm-10.4,43.683,10.36,5.967,6.34-10.936-11.51-6.609C1222.89,341.463,1221.15,345.31,1219.29,349.12Zm-121.28-4.969,6.34,10.936,10.28-5.906c-1.86-3.822-3.59-7.693-5.16-11.614Z" transform="translate(-1091 -236)"/>
</svg>
