<svg xmlns="http://www.w3.org/2000/svg" width="35" height="35" viewBox="0 0 35 35">
  <metadata><?xpacket begin="﻿" id="W5M0MpCehiHzreSzNTczkc9d"?>
<x:xmpmeta xmlns:x="adobe:ns:meta/" x:xmptk="Adobe XMP Core 5.6-c138 79.159824, 2016/09/14-01:09:01        ">
   <rdf:RDF xmlns:rdf="http://www.w3.org/1999/02/22-rdf-syntax-ns#">
      <rdf:Description rdf:about=""/>
   </rdf:RDF>
</x:xmpmeta>
                                                                                                    
                                                                                                    
                                                                                                    
                                                                                                    
                                                                                                    
                                                                                                    
                                                                                                    
                                                                                                    
                                                                                                    
                                                                                                    
                                                                                                    
                                                                                                    
                                                                                                    
                                                                                                    
                                                                                                    
                                                                                                    
                                                                                                    
                                                                                                    
                                                                                                    
                                                                                                    
                           
<?xpacket end="w"?></metadata>
<defs>
    <style>
      .cls-1 {
        fill: #61ac61;
        fill-rule: evenodd;
      }
    </style>
  </defs>
  <path id="Forma_1" data-name="Forma 1" class="cls-1" d="M513.5,948.9a9.4,9.4,0,1,1,9.4-9.4A9.411,9.411,0,0,1,513.5,948.9Zm0-17.8a8.4,8.4,0,1,0,8.4,8.4A8.407,8.407,0,0,0,513.5,931.1Zm0-4.1a0.5,0.5,0,0,1-.5-0.5v-4a0.5,0.5,0,0,1,1,0v4A0.5,0.5,0,0,1,513.5,927.006Zm0,29.99a0.5,0.5,0,0,1-.5-0.5v-4a0.5,0.5,0,0,1,1,0v4A0.5,0.5,0,0,1,513.5,957ZM500.5,940h-4a0.5,0.5,0,1,1,0-1h4A0.5,0.5,0,0,1,500.5,940Zm29.99,0h-4a0.5,0.5,0,1,1,0-1h4A0.5,0.5,0,1,1,530.494,940Zm-26.182-9.192a0.507,0.507,0,0,1-.356-0.146l-2.827-2.826a0.5,0.5,0,0,1,.71-0.709l2.827,2.825a0.5,0.5,0,0,1,0,.71A0.5,0.5,0,0,1,504.312,930.81Zm21.205,21.208a0.5,0.5,0,0,1-.355-0.146l-2.828-2.829a0.5,0.5,0,0,1,.71-0.71l2.828,2.829A0.5,0.5,0,0,1,525.517,952.018Zm-24.033,0a0.5,0.5,0,0,1-.355-0.856l2.827-2.829a0.5,0.5,0,1,1,.71.71l-2.827,2.829A0.506,0.506,0,0,1,501.484,952.018ZM522.69,930.81a0.5,0.5,0,0,1-.356-0.856l2.828-2.825a0.5,0.5,0,0,1,.71.709l-2.828,2.826A0.5,0.5,0,0,1,522.69,930.81Z" transform="translate(-496 -922)"/>
</svg>
