<svg xmlns="http://www.w3.org/2000/svg" width="32" height="27" viewBox="0 0 32 27">
  <metadata><?xpacket begin="﻿" id="W5M0MpCehiHzreSzNTczkc9d"?>
<x:xmpmeta xmlns:x="adobe:ns:meta/" x:xmptk="Adobe XMP Core 5.6-c138 79.159824, 2016/09/14-01:09:01        ">
   <rdf:RDF xmlns:rdf="http://www.w3.org/1999/02/22-rdf-syntax-ns#">
      <rdf:Description rdf:about=""/>
   </rdf:RDF>
</x:xmpmeta>
                                                                                                    
                                                                                                    
                                                                                                    
                                                                                                    
                                                                                                    
                                                                                                    
                                                                                                    
                                                                                                    
                                                                                                    
                                                                                                    
                                                                                                    
                                                                                                    
                                                                                                    
                                                                                                    
                                                                                                    
                                                                                                    
                                                                                                    
                                                                                                    
                                                                                                    
                                                                                                    
                           
<?xpacket end="w"?></metadata>
<defs>
    <style>
      .cls-1 {
        fill: #61ac61;
        fill-rule: evenodd;
      }
    </style>
  </defs>
  <path id="Forma_1" data-name="Forma 1" class="cls-1" d="M224.056,939.574a0.525,0.525,0,0,0,.445.247,0.516,0.516,0,0,0,.287-0.087,0.546,0.546,0,0,0,.157-0.746c-0.016-.026-1.646-2.662-0.263-4.46a3.615,3.615,0,0,0,.386-3.62,6.588,6.588,0,0,0-.961-1.714,0.523,0.523,0,0,0-.746-0.068,0.547,0.547,0,0,0-.067.76c0.026,0.031,1.839,2.305.555,3.975C222,936.267,223.971,939.44,224.056,939.574Zm3.552,0a0.525,0.525,0,0,0,.445.247,0.518,0.518,0,0,0,.287-0.087,0.546,0.546,0,0,0,.157-0.746c-0.016-.026-1.646-2.662-0.263-4.46a3.615,3.615,0,0,0,.386-3.62,6.588,6.588,0,0,0-.961-1.714,0.523,0.523,0,0,0-.746-0.068,0.547,0.547,0,0,0-.067.76c0.019,0.022,1.842,2.3.555,3.975C225.551,936.267,227.523,939.44,227.608,939.574Zm-22.221.25a0.528,0.528,0,0,0,.445.247,0.516,0.516,0,0,0,.287-0.087,0.545,0.545,0,0,0,.157-0.746c-0.016-.026-1.645-2.662-0.263-4.46a3.613,3.613,0,0,0,.386-3.619,6.584,6.584,0,0,0-.961-1.715,0.522,0.522,0,0,0-.745-0.068,0.549,0.549,0,0,0-.068.76c0.019,0.023,1.842,2.3.555,3.975C203.33,936.517,205.3,939.69,205.387,939.824Zm3.552,0a0.528,0.528,0,0,0,.445.247,0.518,0.518,0,0,0,.287-0.087,0.546,0.546,0,0,0,.157-0.746c-0.016-.026-1.645-2.662-0.263-4.46a3.613,3.613,0,0,0,.386-3.619,6.584,6.584,0,0,0-.961-1.715,0.522,0.522,0,0,0-.745-0.068,0.549,0.549,0,0,0-.068.76c0.019,0.023,1.842,2.3.555,3.975C206.882,936.517,208.854,939.69,208.939,939.824Zm22.3,11.916h-1.122a13.277,13.277,0,0,0-11.954-12.78v-0.549a2.267,2.267,0,0,0-1.143-4.194h-0.048a2.267,2.267,0,0,0-1.143,4.194v0.549a13.277,13.277,0,0,0-11.954,12.78h-1.122A1.777,1.777,0,0,0,201,953.532v0.675A1.777,1.777,0,0,0,202.757,956h28.486A1.777,1.777,0,0,0,233,954.207v-0.675A1.777,1.777,0,0,0,231.243,951.74Zm-15.425-15.263a1.171,1.171,0,0,1,1.158-1.181h0.048a1.183,1.183,0,0,1,.42,2.278,0.539,0.539,0,0,0-.336.5v0.834h-0.217v-0.834a0.539,0.539,0,0,0-.335-0.5A1.175,1.175,0,0,1,215.818,936.477Zm16.123,17.73a0.706,0.706,0,0,1-.7.713H202.756a0.706,0.706,0,0,1-.7-0.713v-0.675a0.706,0.706,0,0,1,.7-0.712h19.888a0.54,0.54,0,0,0,0-1.08H204.939a12.176,12.176,0,0,1,11.988-11.752h0.146a12.176,12.176,0,0,1,11.988,11.752h-2.994a0.54,0.54,0,0,0,0,1.08h5.176a0.706,0.706,0,0,1,.7.712v0.675Z" transform="translate(-201 -929)"/>
</svg>
