<svg xmlns="http://www.w3.org/2000/svg" width="26" height="26" viewBox="0 0 26 26">
  <metadata><?xpacket begin="﻿" id="W5M0MpCehiHzreSzNTczkc9d"?>
<x:xmpmeta xmlns:x="adobe:ns:meta/" x:xmptk="Adobe XMP Core 5.6-c138 79.159824, 2016/09/14-01:09:01        ">
   <rdf:RDF xmlns:rdf="http://www.w3.org/1999/02/22-rdf-syntax-ns#">
      <rdf:Description rdf:about=""/>
   </rdf:RDF>
</x:xmpmeta>
                                                                                                    
                                                                                                    
                                                                                                    
                                                                                                    
                                                                                                    
                                                                                                    
                                                                                                    
                                                                                                    
                                                                                                    
                                                                                                    
                                                                                                    
                                                                                                    
                                                                                                    
                                                                                                    
                                                                                                    
                                                                                                    
                                                                                                    
                                                                                                    
                                                                                                    
                                                                                                    
                           
<?xpacket end="w"?></metadata>
<defs>
    <style>
      .cls-1 {
        fill: #61ac61;
        fill-rule: evenodd;
      }
    </style>
  </defs>
  <path class="cls-1" d="M507.592,857.213h-3.964a0.415,0.415,0,1,0,0,.829h3.964A0.415,0.415,0,1,0,507.592,857.213Zm0,1.659h-3.964a0.415,0.415,0,0,0,0,.83h3.964A0.415,0.415,0,1,0,507.592,858.872Zm0,1.66h-3.964a0.415,0.415,0,0,0,0,.83h3.964A0.415,0.415,0,0,0,507.592,860.532Zm0,12.447h-3.964a0.415,0.415,0,1,0,0,.83h3.964A0.415,0.415,0,0,0,507.592,872.979Zm0,1.659h-3.964a0.415,0.415,0,0,0,0,.83h3.964A0.415,0.415,0,0,0,507.592,874.638Zm0,1.66h-3.964a0.415,0.415,0,1,0,0,.83h3.964A0.415,0.415,0,0,0,507.592,876.3Zm-3.135-7.883a1.245,1.245,0,1,0-1.244-1.245A1.246,1.246,0,0,0,504.457,868.415Zm0-1.66a0.415,0.415,0,1,1-.414.415A0.416,0.416,0,0,1,504.457,866.755Zm11.525-9.542h-3.964a0.415,0.415,0,1,0,0,.829h3.964A0.415,0.415,0,1,0,515.982,857.213Zm0,1.659h-3.964a0.415,0.415,0,1,0,0,.83h3.964A0.415,0.415,0,0,0,515.982,858.872Zm0,1.66h-3.964a0.415,0.415,0,1,0,0,.83h3.964A0.415,0.415,0,1,0,515.982,860.532Zm0,12.447h-3.964a0.415,0.415,0,1,0,0,.83h3.964A0.415,0.415,0,1,0,515.982,872.979Zm0,1.659h-3.964a0.415,0.415,0,1,0,0,.83h3.964A0.415,0.415,0,1,0,515.982,874.638Zm0,1.66h-3.964a0.415,0.415,0,0,0,0,.83h3.964A0.415,0.415,0,1,0,515.982,876.3Zm-3.134-7.883a1.245,1.245,0,1,0-1.245-1.245A1.246,1.246,0,0,0,512.848,868.415Zm0-1.66a0.415,0.415,0,1,1-.415.415A0.416,0.416,0,0,1,512.848,866.755Zm7.56-8.713h3.964a0.415,0.415,0,1,0,0-.829h-3.964A0.415,0.415,0,1,0,520.408,858.042Zm3.964,0.83h-3.964a0.415,0.415,0,0,0,0,.83h3.964A0.415,0.415,0,0,0,524.372,858.872Zm0,1.66h-3.964a0.415,0.415,0,0,0,0,.83h3.964A0.415,0.415,0,1,0,524.372,860.532Zm0,12.447h-3.964a0.415,0.415,0,0,0,0,.83h3.964A0.415,0.415,0,1,0,524.372,872.979Zm0,1.659h-3.964a0.415,0.415,0,0,0,0,.83h3.964A0.415,0.415,0,1,0,524.372,874.638Zm0,1.66h-3.964a0.415,0.415,0,1,0,0,.83h3.964A0.415,0.415,0,1,0,524.372,876.3Zm-3.134-7.883a1.245,1.245,0,1,0-1.245-1.245A1.246,1.246,0,0,0,521.238,868.415Zm0-1.66a0.415,0.415,0,1,1-.415.415A0.417,0.417,0,0,1,521.238,866.755ZM526.585,855h-25.17a0.415,0.415,0,0,0-.415.415v25.17a0.415,0.415,0,0,0,.83,0V879.34h7.56v1.245a0.415,0.415,0,0,0,.83,0V879.34h7.56v1.245a0.415,0.415,0,1,0,.83,0V879.34h7.56v1.245a0.415,0.415,0,1,0,.83,0v-25.17A0.415,0.415,0,0,0,526.585,855Zm-7.975,23.511V860.947a0.415,0.415,0,0,0-.83,0v17.564h-7.56v-5.117a0.415,0.415,0,1,0-.83,0v5.117h-7.56V855.83h7.56v15.9a0.415,0.415,0,0,0,.83,0v-15.9h7.56v3.457a0.415,0.415,0,1,0,.83,0V855.83h7.56v22.681h-7.56Z" transform="translate(-501 -855)"/>
</svg>
