<svg xmlns="http://www.w3.org/2000/svg" width="23" height="23" viewBox="0 0 23 23">
  <metadata><?xpacket begin="﻿" id="W5M0MpCehiHzreSzNTczkc9d"?>
<x:xmpmeta xmlns:x="adobe:ns:meta/" x:xmptk="Adobe XMP Core 5.6-c138 79.159824, 2016/09/14-01:09:01        ">
   <rdf:RDF xmlns:rdf="http://www.w3.org/1999/02/22-rdf-syntax-ns#">
      <rdf:Description rdf:about=""/>
   </rdf:RDF>
</x:xmpmeta>
                                                                                                    
                                                                                                    
                                                                                                    
                                                                                                    
                                                                                                    
                                                                                                    
                                                                                                    
                                                                                                    
                                                                                                    
                                                                                                    
                                                                                                    
                                                                                                    
                                                                                                    
                                                                                                    
                                                                                                    
                                                                                                    
                                                                                                    
                                                                                                    
                                                                                                    
                                                                                                    
                           
<?xpacket end="w"?></metadata>
<defs>
    <style>
      .cls-1 {
        fill: #61ac61;
        fill-rule: evenodd;
      }
    </style>
  </defs>
  <path id="Forma_1" data-name="Forma 1" class="cls-1" d="M367.167,869.267a1.917,1.917,0,1,0-1.917-1.917A1.919,1.919,0,0,0,367.167,869.267Zm0-3.067a1.15,1.15,0,1,1-1.15,1.15A1.151,1.151,0,0,1,367.167,866.2Zm-3.067,7.283h-9.2a0.384,0.384,0,0,0,0,.767h9.2A0.384,0.384,0,0,0,364.1,873.483Zm0,1.917h-9.2a0.384,0.384,0,0,0,0,.767h9.2A0.384,0.384,0,0,0,364.1,875.4Zm3.45-11.883V857h-16.1v6.517H348V876.55h2.3v1.15h1.15V880h16.1v-2.3h1.15v-1.15H371V863.517h-3.45Zm-15.333-5.75h14.566v5.75H352.217v-5.75Zm-0.767,6.516h18.783v6.134H348.767v-6.134h2.683Zm-0.383,12.65V874.25a0.384,0.384,0,0,0-.767,0v1.533h-1.533v-4.6h2.683v5.75h-0.383Zm15.716,2.3H352.217v-8.05h14.566v8.05Zm1.917-3.45V874.25a0.384,0.384,0,0,0-.767,0v2.683H367.55v-5.75h2.683v4.6H368.7Z" transform="translate(-348 -857)"/>
</svg>
