<svg xmlns="http://www.w3.org/2000/svg" width="27" height="29" viewBox="0 0 27 29">
  <metadata><?xpacket begin="﻿" id="W5M0MpCehiHzreSzNTczkc9d"?>
<x:xmpmeta xmlns:x="adobe:ns:meta/" x:xmptk="Adobe XMP Core 5.6-c138 79.159824, 2016/09/14-01:09:01        ">
   <rdf:RDF xmlns:rdf="http://www.w3.org/1999/02/22-rdf-syntax-ns#">
      <rdf:Description rdf:about=""/>
   </rdf:RDF>
</x:xmpmeta>
                                                                                                    
                                                                                                    
                                                                                                    
                                                                                                    
                                                                                                    
                                                                                                    
                                                                                                    
                                                                                                    
                                                                                                    
                                                                                                    
                                                                                                    
                                                                                                    
                                                                                                    
                                                                                                    
                                                                                                    
                                                                                                    
                                                                                                    
                                                                                                    
                                                                                                    
                                                                                                    
                           
<?xpacket end="w"?></metadata>
<defs>
    <style>
      .cls-1 {
        fill: #61ac61;
        fill-rule: evenodd;
      }
    </style>
  </defs>
  <path id="Forma_1" data-name="Forma 1" class="cls-1" d="M366.32,927.047a13.585,13.585,0,0,0-8.308-3.037v-0.54a0.472,0.472,0,0,0-.943,0v0.54a13.585,13.585,0,0,0-8.308,3.037,9.671,9.671,0,0,0-3.68,7.446,0.469,0.469,0,0,0,.281.43,0.473,0.473,0,0,0,.508-0.082,6.726,6.726,0,0,1,7.357,0,0.473,0.473,0,0,0,.635,0,5.4,5.4,0,0,1,3.207-1.081v12.29h-1.6l-1.48-2.067h1.036a0.47,0.47,0,1,0,0-.94h-6.921l-2.43-3.392a1.475,1.475,0,0,0-2.4,1.711l5.025,7.015a1.466,1.466,0,0,0,.206.231l-0.475,2.845a0.471,0.471,0,0,0,.387.541,0.522,0.522,0,0,0,.078.006,0.471,0.471,0,0,0,.464-0.393l0.438-2.617c0.034,0,.068,0,0.1,0h7.568v2.537a0.472,0.472,0,0,0,.943,0v-2.537h9.179l0.437,2.614a0.471,0.471,0,0,0,.464.393,0.411,0.411,0,0,0,.078-0.007,0.47,0.47,0,0,0,.388-0.54l-0.412-2.461a1.471,1.471,0,0,0-.053-2.942H358.012V933.76a5.4,5.4,0,0,1,3.207,1.081,0.473,0.473,0,0,0,.635,0,6.726,6.726,0,0,1,7.357,0,0.474,0.474,0,0,0,.508.082,0.469,0.469,0,0,0,.281-0.43A9.671,9.671,0,0,0,366.32,927.047Zm-13.486,16.936,1.481,2.067H350.26l-1.48-2.067h4.054Zm15.793,3.539a0.534,0.534,0,0,1-.534.532H349.5a0.535,0.535,0,0,1-.435-0.223l-5.025-7.015a0.531,0.531,0,0,1,.125-0.743,0.528,0.528,0,0,1,.308-0.1,0.546,0.546,0,0,1,.09.007,0.533,0.533,0,0,1,.346.216l4.725,6.6a0.469,0.469,0,0,0,.383.2h18.075A0.534,0.534,0,0,1,368.627,947.522Zm-8.7-19.959a18.314,18.314,0,0,1,1.122,6.027,8.261,8.261,0,0,0-7.021,0,18.314,18.314,0,0,1,1.122-6.027c0.669-1.666,1.539-2.621,2.389-2.621S359.26,925.9,359.929,927.563Zm-13.852,6c0.5-4.271,4.4-7.728,9.423-8.476a7.549,7.549,0,0,0-1.222,2.122,19.276,19.276,0,0,0-1.191,6.391A8.271,8.271,0,0,0,346.077,933.568Zm19.456-.761a7.536,7.536,0,0,0-3.539.8,19.3,19.3,0,0,0-1.19-6.391,7.574,7.574,0,0,0-1.223-2.122c5.022,0.748,8.926,4.205,9.423,8.476A7.611,7.611,0,0,0,365.533,932.807Z" transform="translate(-343 -923)"/>
</svg>
