<svg xmlns="http://www.w3.org/2000/svg" width="30.031" height="22" viewBox="0 0 30.031 22">
  <metadata><?xpacket begin="﻿" id="W5M0MpCehiHzreSzNTczkc9d"?>
<x:xmpmeta xmlns:x="adobe:ns:meta/" x:xmptk="Adobe XMP Core 5.6-c138 79.159824, 2016/09/14-01:09:01        ">
   <rdf:RDF xmlns:rdf="http://www.w3.org/1999/02/22-rdf-syntax-ns#">
      <rdf:Description rdf:about=""/>
   </rdf:RDF>
</x:xmpmeta>
                                                                                                    
                                                                                                    
                                                                                                    
                                                                                                    
                                                                                                    
                                                                                                    
                                                                                                    
                                                                                                    
                                                                                                    
                                                                                                    
                                                                                                    
                                                                                                    
                                                                                                    
                                                                                                    
                                                                                                    
                                                                                                    
                                                                                                    
                                                                                                    
                                                                                                    
                                                                                                    
                           
<?xpacket end="w"?></metadata>
<defs>
    <style>
      .cls-1 {
        fill: #61ac61;
        fill-rule: evenodd;
      }
    </style>
  </defs>
  <path id="Forma_1" data-name="Forma 1" class="cls-1" d="M229.839,864.315a20.587,20.587,0,0,0-29.678,0,0.574,0.574,0,0,0,0,.795,0.535,0.535,0,0,0,.773,0,19.516,19.516,0,0,1,28.132,0,0.535,0.535,0,0,0,.773,0A0.573,0.573,0,0,0,229.839,864.315Zm-26.466,3.3a0.572,0.572,0,0,0,0,.795,0.534,0.534,0,0,0,.772,0,15.061,15.061,0,0,1,21.709,0,0.535,0.535,0,0,0,.773,0,0.574,0.574,0,0,0,0-.795A16.133,16.133,0,0,0,203.373,867.619ZM215,867.343a11.656,11.656,0,0,0-8.416,3.582,0.574,0.574,0,0,0,0,.8,0.535,0.535,0,0,0,.773,0,10.605,10.605,0,0,1,15.286,0,0.535,0.535,0,0,0,.773,0,0.574,0.574,0,0,0,0-.8A11.656,11.656,0,0,0,215,867.343Zm0,5.29a3.686,3.686,0,1,0,3.579,3.684A3.637,3.637,0,0,0,215,872.633Zm0,6.244a2.561,2.561,0,1,1,2.487-2.56A2.527,2.527,0,0,1,215,878.877Z" transform="translate(-200 -858)"/>
</svg>
