<svg xmlns="http://www.w3.org/2000/svg" width="26" height="26" viewBox="0 0 26 26">
  <metadata><?xpacket begin="﻿" id="W5M0MpCehiHzreSzNTczkc9d"?>
<x:xmpmeta xmlns:x="adobe:ns:meta/" x:xmptk="Adobe XMP Core 5.6-c138 79.159824, 2016/09/14-01:09:01        ">
   <rdf:RDF xmlns:rdf="http://www.w3.org/1999/02/22-rdf-syntax-ns#">
      <rdf:Description rdf:about=""/>
   </rdf:RDF>
</x:xmpmeta>
                                                                                                    
                                                                                                    
                                                                                                    
                                                                                                    
                                                                                                    
                                                                                                    
                                                                                                    
                                                                                                    
                                                                                                    
                                                                                                    
                                                                                                    
                                                                                                    
                                                                                                    
                                                                                                    
                                                                                                    
                                                                                                    
                                                                                                    
                                                                                                    
                                                                                                    
                                                                                                    
                           
<?xpacket end="w"?></metadata>
<defs>
    <style>
      .cls-1 {
        fill: #61ac61;
        fill-rule: evenodd;
      }
    </style>
  </defs>
  <path class="cls-1" d="M343.592,1254.21h-3.964a0.418,0.418,0,0,0-.415.42,0.41,0.41,0,0,0,.415.41h3.964a0.41,0.41,0,0,0,.415-0.41A0.419,0.419,0,0,0,343.592,1254.21Zm0,1.66h-3.964a0.418,0.418,0,0,0-.415.42,0.41,0.41,0,0,0,.415.41h3.964a0.41,0.41,0,0,0,.415-0.41A0.419,0.419,0,0,0,343.592,1255.87Zm0,1.66h-3.964a0.418,0.418,0,0,0-.415.42,0.41,0.41,0,0,0,.415.41h3.964a0.41,0.41,0,0,0,.415-0.41A0.419,0.419,0,0,0,343.592,1257.53Zm0,12.45h-3.964a0.41,0.41,0,0,0-.415.41,0.418,0.418,0,0,0,.415.42h3.964a0.419,0.419,0,0,0,.415-0.42A0.41,0.41,0,0,0,343.592,1269.98Zm0,1.66h-3.964a0.41,0.41,0,0,0-.415.41,0.418,0.418,0,0,0,.415.42h3.964a0.419,0.419,0,0,0,.415-0.42A0.41,0.41,0,0,0,343.592,1271.64Zm0,1.66h-3.964a0.41,0.41,0,0,0-.415.41,0.418,0.418,0,0,0,.415.42h3.964a0.419,0.419,0,0,0,.415-0.42A0.41,0.41,0,0,0,343.592,1273.3Zm-3.135-7.89a1.24,1.24,0,1,0-1.244-1.24A1.24,1.24,0,0,0,340.457,1265.41Zm0-1.65a0.41,0.41,0,0,1,.415.41,0.415,0.415,0,1,1-.829,0A0.41,0.41,0,0,1,340.457,1263.76Zm11.525-9.55h-3.964a0.419,0.419,0,0,0-.415.42,0.41,0.41,0,0,0,.415.41h3.964a0.41,0.41,0,0,0,.415-0.41A0.419,0.419,0,0,0,351.982,1254.21Zm0,1.66h-3.964a0.419,0.419,0,0,0-.415.42,0.41,0.41,0,0,0,.415.41h3.964a0.41,0.41,0,0,0,.415-0.41A0.419,0.419,0,0,0,351.982,1255.87Zm0,1.66h-3.964a0.419,0.419,0,0,0-.415.42,0.41,0.41,0,0,0,.415.41h3.964a0.41,0.41,0,0,0,.415-0.41A0.419,0.419,0,0,0,351.982,1257.53Zm0,12.45h-3.964a0.41,0.41,0,0,0-.415.41,0.419,0.419,0,0,0,.415.42h3.964a0.419,0.419,0,0,0,.415-0.42A0.41,0.41,0,0,0,351.982,1269.98Zm0,1.66h-3.964a0.41,0.41,0,0,0-.415.41,0.419,0.419,0,0,0,.415.42h3.964a0.419,0.419,0,0,0,.415-0.42A0.41,0.41,0,0,0,351.982,1271.64Zm0,1.66h-3.964a0.41,0.41,0,0,0-.415.41,0.419,0.419,0,0,0,.415.42h3.964a0.419,0.419,0,0,0,.415-0.42A0.41,0.41,0,0,0,351.982,1273.3Zm-3.134-7.89a1.24,1.24,0,1,0-1.245-1.24A1.239,1.239,0,0,0,348.848,1265.41Zm0-1.65a0.41,0.41,0,0,1,.414.41,0.415,0.415,0,1,1-.829,0A0.41,0.41,0,0,1,348.848,1263.76Zm7.56-8.72h3.964a0.41,0.41,0,0,0,.415-0.41,0.418,0.418,0,0,0-.415-0.42h-3.964a0.419,0.419,0,0,0-.415.42A0.41,0.41,0,0,0,356.408,1255.04Zm3.964,0.83h-3.964a0.419,0.419,0,0,0-.415.42,0.41,0.41,0,0,0,.415.41h3.964a0.41,0.41,0,0,0,.415-0.41A0.419,0.419,0,0,0,360.372,1255.87Zm0,1.66h-3.964a0.419,0.419,0,0,0-.415.42,0.41,0.41,0,0,0,.415.41h3.964a0.41,0.41,0,0,0,.415-0.41A0.419,0.419,0,0,0,360.372,1257.53Zm0,12.45h-3.964a0.41,0.41,0,0,0-.415.41,0.419,0.419,0,0,0,.415.42h3.964a0.418,0.418,0,0,0,.415-0.42A0.41,0.41,0,0,0,360.372,1269.98Zm0,1.66h-3.964a0.41,0.41,0,0,0-.415.41,0.419,0.419,0,0,0,.415.42h3.964a0.418,0.418,0,0,0,.415-0.42A0.41,0.41,0,0,0,360.372,1271.64Zm0,1.66h-3.964a0.41,0.41,0,0,0-.415.41,0.419,0.419,0,0,0,.415.42h3.964a0.418,0.418,0,0,0,.415-0.42A0.41,0.41,0,0,0,360.372,1273.3Zm-3.134-7.89a1.24,1.24,0,1,0-1.245-1.24A1.239,1.239,0,0,0,357.238,1265.41Zm0-1.65a0.411,0.411,0,0,1,.415.41,0.415,0.415,0,1,1-.83,0A0.41,0.41,0,0,1,357.238,1263.76Zm5.347-11.76h-25.17a0.417,0.417,0,0,0-.415.41v25.18a0.415,0.415,0,0,0,.83,0v-1.25h7.56v1.25a0.415,0.415,0,0,0,.83,0v-1.25h7.56v1.25a0.415,0.415,0,0,0,.83,0v-1.25h7.56v1.25a0.415,0.415,0,0,0,.83,0v-25.18A0.417,0.417,0,0,0,362.585,1252Zm-7.975,23.51v-17.56a0.415,0.415,0,1,0-.83,0v17.56h-7.56v-5.12a0.415,0.415,0,0,0-.83,0v5.12h-7.56v-22.68h7.56v15.9a0.415,0.415,0,1,0,.83,0v-15.9h7.56v3.46a0.415,0.415,0,0,0,.83,0v-3.46h7.56v22.68h-7.56Z" transform="translate(-337 -1252)"/>
</svg>
