<svg xmlns="http://www.w3.org/2000/svg" width="32" height="27" viewBox="0 0 32 27">
  <metadata><?xpacket begin="﻿" id="W5M0MpCehiHzreSzNTczkc9d"?>
<x:xmpmeta xmlns:x="adobe:ns:meta/" x:xmptk="Adobe XMP Core 5.6-c138 79.159824, 2016/09/14-01:09:01        ">
   <rdf:RDF xmlns:rdf="http://www.w3.org/1999/02/22-rdf-syntax-ns#">
      <rdf:Description rdf:about=""/>
   </rdf:RDF>
</x:xmpmeta>
                                                                                                    
                                                                                                    
                                                                                                    
                                                                                                    
                                                                                                    
                                                                                                    
                                                                                                    
                                                                                                    
                                                                                                    
                                                                                                    
                                                                                                    
                                                                                                    
                                                                                                    
                                                                                                    
                                                                                                    
                                                                                                    
                                                                                                    
                                                                                                    
                                                                                                    
                                                                                                    
                           
<?xpacket end="w"?></metadata>
<defs>
    <style>
      .cls-1 {
        fill: #61ac61;
        fill-rule: evenodd;
      }
    </style>
  </defs>
  <path id="Forma_1" data-name="Forma 1" class="cls-1" d="M657.056,1142.57a0.528,0.528,0,0,0,.445.25,0.512,0.512,0,0,0,.287-0.09,0.538,0.538,0,0,0,.157-0.74c-0.016-.03-1.646-2.66-0.263-4.46a3.618,3.618,0,0,0,.386-3.62,6.73,6.73,0,0,0-.961-1.72,0.514,0.514,0,0,0-.746-0.06,0.547,0.547,0,0,0-.067.76c0.026,0.03,1.839,2.3.555,3.97C655,1139.27,656.971,1142.44,657.056,1142.57Zm3.552,0a0.528,0.528,0,0,0,.445.25,0.514,0.514,0,0,0,.287-0.09,0.538,0.538,0,0,0,.157-0.74c-0.016-.03-1.646-2.66-0.263-4.46a3.618,3.618,0,0,0,.386-3.62,6.73,6.73,0,0,0-.961-1.72,0.514,0.514,0,0,0-.746-0.06,0.547,0.547,0,0,0-.067.76c0.019,0.02,1.842,2.3.555,3.97C658.551,1139.27,660.523,1142.44,660.608,1142.57Zm-22.22.25a0.528,0.528,0,0,0,.444.25,0.512,0.512,0,0,0,.287-0.09,0.538,0.538,0,0,0,.157-0.74c-0.016-.03-1.645-2.66-0.263-4.46a3.616,3.616,0,0,0,.386-3.62,6.73,6.73,0,0,0-.961-1.72,0.521,0.521,0,0,0-.745-0.06,0.547,0.547,0,0,0-.067.76c0.018,0.02,1.841,2.3.554,3.97C636.33,1139.52,638.3,1142.69,638.388,1142.82Zm3.551,0a0.531,0.531,0,0,0,.445.25,0.512,0.512,0,0,0,.287-0.09,0.538,0.538,0,0,0,.157-0.74c-0.016-.03-1.645-2.66-0.263-4.46a3.618,3.618,0,0,0,.386-3.62,6.73,6.73,0,0,0-.961-1.72,0.521,0.521,0,0,0-.745-0.06,0.547,0.547,0,0,0-.067.76c0.018,0.02,1.841,2.3.554,3.97C639.882,1139.52,641.854,1142.69,641.939,1142.82Zm22.3,11.92h-1.122a13.282,13.282,0,0,0-11.954-12.78v-0.55a2.265,2.265,0,0,0-1.143-4.19h-0.048a2.265,2.265,0,0,0-1.143,4.19v0.55a13.282,13.282,0,0,0-11.954,12.78h-1.122a1.774,1.774,0,0,0-1.757,1.79v0.68a1.774,1.774,0,0,0,1.757,1.79h28.486a1.774,1.774,0,0,0,1.757-1.79v-0.68A1.774,1.774,0,0,0,664.243,1154.74Zm-15.425-15.26a1.171,1.171,0,0,1,1.158-1.18h0.048a1.178,1.178,0,0,1,.42,2.27,0.54,0.54,0,0,0-.336.51v0.83h-0.217v-0.83a0.541,0.541,0,0,0-.335-0.51A1.172,1.172,0,0,1,648.818,1139.48Zm16.123,17.73a0.706,0.706,0,0,1-.7.71H635.756a0.706,0.706,0,0,1-.7-0.71v-0.68a0.706,0.706,0,0,1,.7-0.71h19.888a0.54,0.54,0,0,0,0-1.08H637.939a12.178,12.178,0,0,1,11.988-11.75h0.146a12.178,12.178,0,0,1,11.988,11.75h-2.994a0.54,0.54,0,0,0,0,1.08h5.176a0.706,0.706,0,0,1,.7.71v0.68Z" transform="translate(-634 -1132)"/>
</svg>
