<svg xmlns="http://www.w3.org/2000/svg" width="44" height="25" viewBox="0 0 44 25">
  <metadata><?xpacket begin="﻿" id="W5M0MpCehiHzreSzNTczkc9d"?>
<x:xmpmeta xmlns:x="adobe:ns:meta/" x:xmptk="Adobe XMP Core 5.6-c138 79.159824, 2016/09/14-01:09:01        ">
   <rdf:RDF xmlns:rdf="http://www.w3.org/1999/02/22-rdf-syntax-ns#">
      <rdf:Description rdf:about=""/>
   </rdf:RDF>
</x:xmpmeta>
                                                                                                    
                                                                                                    
                                                                                                    
                                                                                                    
                                                                                                    
                                                                                                    
                                                                                                    
                                                                                                    
                                                                                                    
                                                                                                    
                                                                                                    
                                                                                                    
                                                                                                    
                                                                                                    
                                                                                                    
                                                                                                    
                                                                                                    
                                                                                                    
                                                                                                    
                                                                                                    
                           
<?xpacket end="w"?></metadata>
<defs>
    <style>
      .cls-1 {
        fill: #61ac61;
        fill-rule: evenodd;
      }
    </style>
  </defs>
  <path class="cls-1" d="M526.327,1262.49a2.316,2.316,0,0,0-1.766-.87h-1v-0.81a2.738,2.738,0,0,0-2.807-2.66h-1.318v-1.51a2.647,2.647,0,0,0-.82-1.9,2.88,2.88,0,0,0-3.86,0,2.647,2.647,0,0,0-.82,1.9v7.07H496.062v-7.07a2.646,2.646,0,0,0-.819-1.9,2.88,2.88,0,0,0-3.86,0,2.644,2.644,0,0,0-.821,1.9v1.51h-1.478a2.715,2.715,0,0,0-1.851.71,2.464,2.464,0,0,0-.8,1.8v0.96h-0.99a2.307,2.307,0,0,0-1.773.88,3.072,3.072,0,0,0-.674,1.95v4.07a3.1,3.1,0,0,0,.675,1.96,2.328,2.328,0,0,0,1.772.87h0.99v0.97a2.5,2.5,0,0,0,.8,1.8,2.711,2.711,0,0,0,1.85.71h1.478v1.51a2.625,2.625,0,0,0,.82,1.89,2.805,2.805,0,0,0,3.861,0,2.624,2.624,0,0,0,.819-1.89v-7.07h17.875v7.07a2.625,2.625,0,0,0,.82,1.89,2.8,2.8,0,0,0,3.86,0,2.625,2.625,0,0,0,.82-1.89v-1.51h1.318a2.738,2.738,0,0,0,2.807-2.66v-0.82h1a2.32,2.32,0,0,0,1.767-.87,3.076,3.076,0,0,0,.672-1.95v-4.09A3.077,3.077,0,0,0,526.327,1262.49Zm-40.88,7.47a0.937,0.937,0,0,1-.715-0.37,1.721,1.721,0,0,1-.357-1.07v-4.07a1.671,1.671,0,0,1,.357-1.06,0.95,0.95,0,0,1,.715-0.38h0.99v6.95h-0.99Zm3.637,3.48a1.369,1.369,0,0,1-.92-0.35,1.041,1.041,0,0,1-.352-0.77v-11.66a1.068,1.068,0,0,1,.35-0.78,1.371,1.371,0,0,1,.922-0.34h1.478v13.9h-1.478Zm5.6,2.9a1.213,1.213,0,0,1-.388.88,1.506,1.506,0,0,1-1.972,0,1.211,1.211,0,0,1-.39-0.88v-19.7a1.236,1.236,0,0,1,.389-0.89,1.443,1.443,0,0,1,1.973,0,1.235,1.235,0,0,1,.388.89v19.7Zm1.375-8.46v-2.78h17.875v2.78H496.062Zm22,8.46a1.21,1.21,0,0,1-.389.88,1.506,1.506,0,0,1-1.972,0,1.21,1.21,0,0,1-.389-0.88v-19.7a1.235,1.235,0,0,1,.388-0.89,1.471,1.471,0,0,1,1.973,0,1.232,1.232,0,0,1,.389.89v19.7Zm4.125-4.17a1.36,1.36,0,0,1-1.432,1.27h-1.318v-13.9h1.318a1.36,1.36,0,0,1,1.432,1.27v11.36Zm3.437-3.64a1.686,1.686,0,0,1-.353,1.06,0.928,0.928,0,0,1-.71.37h-1v-6.95h1a0.928,0.928,0,0,1,.71.37,1.7,1.7,0,0,1,.353,1.06v4.09Z" transform="translate(-483 -1254)"/>
</svg>
