<svg xmlns="http://www.w3.org/2000/svg" xmlns:xlink="http://www.w3.org/1999/xlink" version="1.1" x="0px" y="0px" viewBox="0 0 164 148.75"  width="33px" height="33px" style="enable-background:new 0 0 164 119;" xml:space="preserve"><style type="text/css">
	.st0{fill:none;stroke:#61ac61;stroke-width:2;stroke-linecap:round;stroke-linejoin:round;stroke-miterlimit:10;}
</style><line class="st0" x1="10.9" y1="90.3" x2="148.5" y2="90.3" fill="#61ac61"/><g>
<path class="st0" d="M24.3,88.6c-6.5-28.3,13-57,43.7-64.1s60.9,10.1,67.5,38.4L24.3,88.6z" fill="#61ac61"/>
<path class="st0" d="M73,31c25.2-5.8,50.1,8.3,55.5,31.6"/>
<path class="st0" d="M66.8,32.8c0.7-0.3,1.5-0.5,2.2-0.7" fill="#61ac61"/>
<path class="st0" d="M63.5,24.9c-0.6-2.4,1-4.9,3.4-5.4c2.4-0.6,4.9,1,5.4,3.4" fill="#61ac61"/></g>
<path class="st0" d="M121.4,88.8c0.3-3.5-2-6.5-5.3-7.3c0.2-0.4,0.3-0.8,0.3-1.3c0.2-2.3-1.5-4.4-3.8-4.6s-4.4,1.5-4.6,3.8  c0,0.1,0,0.1,0,0.2c-0.7-0.3-1.4-0.4-2.2-0.5c-3.1-0.3-6,1.2-7.6,3.6c-1.5-1.9-3.7-3.2-6.3-3.5c-4.1-0.4-7.8,2.1-9.1,5.7  c-1.2-1.3-2.8-2.2-4.7-2.4c-1.7-0.2-3.3,0.3-4.7,1.2c0.1-0.4,0.3-0.8,0.3-1.2c0.2-2.3-1.5-4.3-3.7-4.5c-2.1-0.2-4,1.3-4.4,3.3  c-4.6-0.4-8.6,3-9,7.5" fill="#61ac61"/><g>
<path class="st0" d="M141.5,20.1c0,6.1-4,6.1-4,12.1c0,6.1,4,6.1,4,12.1" fill="#61ac61"/></g><g><path class="st0" d="M143.8,56.3c0-6.1,4-6.1,4-12.1c0-6.1-4-6.1-4-12.1" fill="#61ac61"/></g></svg>