<svg xmlns="http://www.w3.org/2000/svg" width="16" height="25" viewBox="0 0 16 25">
  <metadata><?xpacket begin="﻿" id="W5M0MpCehiHzreSzNTczkc9d"?>
<x:xmpmeta xmlns:x="adobe:ns:meta/" x:xmptk="Adobe XMP Core 5.6-c138 79.159824, 2016/09/14-01:09:01        ">
   <rdf:RDF xmlns:rdf="http://www.w3.org/1999/02/22-rdf-syntax-ns#">
      <rdf:Description rdf:about=""/>
   </rdf:RDF>
</x:xmpmeta>
                                                                                                    
                                                                                                    
                                                                                                    
                                                                                                    
                                                                                                    
                                                                                                    
                                                                                                    
                                                                                                    
                                                                                                    
                                                                                                    
                                                                                                    
                                                                                                    
                                                                                                    
                                                                                                    
                                                                                                    
                                                                                                    
                                                                                                    
                                                                                                    
                                                                                                    
                                                                                                    
                           
<?xpacket end="w"?></metadata>
<defs>
    <style>
      .cls-1 {
        fill: #61ac61;
        fill-rule: evenodd;
      }
    </style>
  </defs>
  <path id="Forma_1" data-name="Forma 1" class="cls-1" d="M357.065,1017.52a1.452,1.452,0,0,0,.093-0.5v-0.45a1.3,1.3,0,0,0-1.263-1.34h-7.341l-1.141-2.01a0.407,0.407,0,0,0-.36-0.22h-1.685a0.436,0.436,0,0,0-.421.45v1.78h-0.842a1.3,1.3,0,0,0-1.263,1.34v0.45a1.452,1.452,0,0,0,.093.5,1.32,1.32,0,0,0-.935,1.28v2.68a1.3,1.3,0,0,0,1.263,1.34h0.076l0.253,1.34h-0.329a0.393,0.393,0,0,0-.312.15,0.456,0.456,0,0,0-.107.34l0.842,8.93a0.429,0.429,0,0,0,.419.4h0.443l0.4,3.63a0.431,0.431,0,0,0,.418.39h9.685a0.431,0.431,0,0,0,.418-0.4l0.38-3.62h0.465a0.427,0.427,0,0,0,.42-0.42l0.421-8.93a0.464,0.464,0,0,0-.115-0.33,0.406,0.406,0,0,0-.3-0.14h-0.329l0.253-1.34h0.076a1.3,1.3,0,0,0,1.263-1.34v-2.68A1.32,1.32,0,0,0,357.065,1017.52Zm-11.276-3.63h1.025l0.758,1.34h-1.783v-1.34Zm-2.1,2.68a0.427,0.427,0,0,1,.421-0.44H355.9a0.427,0.427,0,0,1,.421.44v0.45a0.433,0.433,0,0,1-.421.44h-11.79a0.433,0.433,0,0,1-.421-0.44v-0.45Zm10.992,20.54h-8.933l-0.347-3.13H355Zm1.239-4.02H344.486l-0.758-8.04h12.566Zm-0.366-8.93h-11.1l-0.253-1.34h11.6Zm1.609-2.68a0.436,0.436,0,0,1-.421.45H343.263a0.436,0.436,0,0,1-.421-0.45v-2.68a0.433,0.433,0,0,1,.421-0.44h13.474a0.433,0.433,0,0,1,.421.44v2.68ZM350,1025.95c-2.361,0-4.211,1.37-4.211,3.12s1.85,3.13,4.211,3.13,4.211-1.38,4.211-3.13S352.361,1025.95,350,1025.95Zm0,5.35c-1.826,0-3.368-1.02-3.368-2.23s1.542-2.23,3.368-2.23,3.368,1.02,3.368,2.23S351.826,1031.3,350,1031.3Z" transform="translate(-342 -1013)"/>
</svg>
