<svg xmlns:x="http://ns.adobe.com/Extensibility/1.0/" xmlns:i="http://ns.adobe.com/AdobeIllustrator/10.0/" xmlns:graph="http://ns.adobe.com/Graphs/1.0/" xmlns="http://www.w3.org/2000/svg" xmlns:xlink="http://www.w3.org/1999/xlink" version="1.1"  width="44px" height="44px" x="0px" y="0px" viewBox="0 0 64 80" enable-background="new 0 0 64 64" xml:space="preserve"><metadata><sfw xmlns="http://ns.adobe.com/SaveForWeb/1.0/"><slices/><sliceSourceBounds y="-8160" x="-8165" width="16389" height="16384" bottomLeftOrigin="true"/></sfw></metadata><g><g><path d="M20,8.5h24c0.276,0,0.5-0.224,0.5-0.5S44.276,7.5,44,7.5H20c-0.276,0-0.5,0.224-0.5,0.5S19.724,8.5,20,8.5z" fill="#61ac61"/><path d="M44,13.5H20c-0.276,0-0.5,0.224-0.5,0.5v28v14c0,0.276,0.224,0.5,0.5,0.5s0.5-0.224,0.5-0.5V42.5h11V54    c0,0.276,0.224,0.5,0.5,0.5s0.5-0.224,0.5-0.5V42.5h11V56c0,0.276,0.224,0.5,0.5,0.5s0.5-0.224,0.5-0.5V42V14    C44.5,13.724,44.276,13.5,44,13.5z M20.5,14.5h23v27h-23V14.5z" fill="#61ac61"/><path d="M26,31.5c-0.276,0-0.5,0.224-0.5,0.5v4c0,0.276,0.224,0.5,0.5,0.5s0.5-0.224,0.5-0.5v-4C26.5,31.724,26.276,31.5,26,31.5z    " fill="#61ac61"/><path d="M32.5,36v-8c0-0.276-0.224-0.5-0.5-0.5s-0.5,0.224-0.5,0.5v8c0,0.276,0.224,0.5,0.5,0.5S32.5,36.276,32.5,36z" fill="#61ac61"/><path d="M38,36.5c0.276,0,0.5-0.224,0.5-0.5V24c0-0.276-0.224-0.5-0.5-0.5s-0.5,0.224-0.5,0.5v12C37.5,36.276,37.724,36.5,38,36.5    z" fill="#61ac61"/></g></g></svg>