<svg xmlns="http://www.w3.org/2000/svg" xmlns:xlink="http://www.w3.org/1999/xlink" version="1.1" width="50" height="50" x="0px" y="0px" viewBox="0 0 100 125" style="enable-background:new 0 0 100 100;" xml:space="preserve"><path d="M80,66.8c0,0.2-0.1,0.4-0.1,0.6c-0.2,0.9-1,1.6-2,1.6H22.2c-1,0-1.8-0.7-2-1.6c-0.1-0.2-0.1-0.4-0.1-0.6  c-0.1-0.3,0.2-0.6,0.5-0.6h22.9v1.4h13.3v-1.4h22.9C79.8,66.2,80.1,66.5,80,66.8z M79.1,65.3H20.9l5.1-5h48L79.1,65.3z M24.5,63.8  h51l-2.1-2.1H26.6L24.5,63.8z M26,59.1V32.4c0-0.8,0.7-1.4,1.5-1.4h45.1c0.8,0,1.5,0.6,1.5,1.4v26.6c0,0.1-0.1,0.2-0.2,0.2H26.2  C26.1,59.3,26,59.2,26,59.1z M27.5,57.8h45V32.5h-45V57.8z" fill="#61ac61"/></svg>