<svg xmlns="http://www.w3.org/2000/svg" width="26" height="23" viewBox="0 0 26 23">
  <metadata><?xpacket begin="﻿" id="W5M0MpCehiHzreSzNTczkc9d"?>
<x:xmpmeta xmlns:x="adobe:ns:meta/" x:xmptk="Adobe XMP Core 5.6-c138 79.159824, 2016/09/14-01:09:01        ">
   <rdf:RDF xmlns:rdf="http://www.w3.org/1999/02/22-rdf-syntax-ns#">
      <rdf:Description rdf:about=""/>
   </rdf:RDF>
</x:xmpmeta>
                                                                                                    
                                                                                                    
                                                                                                    
                                                                                                    
                                                                                                    
                                                                                                    
                                                                                                    
                                                                                                    
                                                                                                    
                                                                                                    
                                                                                                    
                                                                                                    
                                                                                                    
                                                                                                    
                                                                                                    
                                                                                                    
                                                                                                    
                                                                                                    
                                                                                                    
                                                                                                    
                           
<?xpacket end="w"?></metadata>
<defs>
    <style>
      .cls-1 {
        fill: #61ac61;
        fill-rule: evenodd;
      }
    </style>
  </defs>
  <path id="Forma_1" data-name="Forma 1" class="cls-1" d="M360.555,1174.75a0.425,0.425,0,1,1-.415.42A0.419,0.419,0,0,1,360.555,1174.75Zm0-2.42a0.428,0.428,0,0,1,.415.43,0.415,0.415,0,1,1-.83,0A0.428,0.428,0,0,1,360.555,1172.33Zm1.137,5.83a5.658,5.658,0,0,0-.272-7.54,5.3,5.3,0,0,0-7.335-.28l-0.111-.11a0.41,0.41,0,0,0-.587.01,0.431,0.431,0,0,0,0,.6l0.109,0.11a5.577,5.577,0,0,0-1.288,3.59c0,0.17.008,0.34,0.023,0.51l-11.515,13.22a0.441,0.441,0,0,0,.016.59l1.174,1.21-0.236.24a2.218,2.218,0,0,1-3.187,0,2.359,2.359,0,0,1,0-3.27l7.794-8.01a3.234,3.234,0,0,0,0-4.48,3.02,3.02,0,0,0-4.36,0l-4.8,4.93,0.586,0.6,4.8-4.93a2.218,2.218,0,0,1,3.187,0,2.359,2.359,0,0,1,0,3.27l-7.793,8.01a3.234,3.234,0,0,0,0,4.48,3.02,3.02,0,0,0,4.36,0l0.235-.24,1.174,1.21a0.416,0.416,0,0,0,.294.12,0.422,0.422,0,0,0,.276-0.11l11.037-10.14c0-.01,1.832-1.69,1.832-1.69a4.106,4.106,0,0,0,.5.02,5.246,5.246,0,0,0,3.5-1.32l0.109,0.11a0.39,0.39,0,0,0,.294.13,0.416,0.416,0,0,0,.293-0.12,0.444,0.444,0,0,0,0-.61Zm-17.713,12.83-1.189-1.22c0-.01-1.189-1.23-1.189-1.23l9.181-10.54a7.815,7.815,0,0,0,1.445,2.07,7.461,7.461,0,0,0,2.014,1.48Zm10.936-10.06a6.7,6.7,0,0,1-2.1-1.46,7.015,7.015,0,0,1-1.429-2.16l1.044-1.2a5.555,5.555,0,0,0,1.363,2.35,5.331,5.331,0,0,0,2.29,1.4Zm2.691-1.7a4.493,4.493,0,0,1-3.227-1.37,4.785,4.785,0,0,1-.286-6.31l0.875,0.88a0.384,0.384,0,0,0,.291.13,0.428,0.428,0,0,0,.291-0.73l-0.871-.89a4.469,4.469,0,0,1,6.154.29,4.774,4.774,0,0,1,.271,6.32l-4.378-4.51a0.409,0.409,0,0,0-.586-0.01,0.444,0.444,0,0,0,0,.61l4.378,4.52A4.488,4.488,0,0,1,357.606,1179.23Z" transform="translate(-337 -1169)"/>
</svg>
