<svg xmlns="http://www.w3.org/2000/svg" width="22" height="22" viewBox="0 0 22 22">
  <metadata><?xpacket begin="﻿" id="W5M0MpCehiHzreSzNTczkc9d"?>
<x:xmpmeta xmlns:x="adobe:ns:meta/" x:xmptk="Adobe XMP Core 5.6-c138 79.159824, 2016/09/14-01:09:01        ">
   <rdf:RDF xmlns:rdf="http://www.w3.org/1999/02/22-rdf-syntax-ns#">
      <rdf:Description rdf:about=""/>
   </rdf:RDF>
</x:xmpmeta>
                                                                                                    
                                                                                                    
                                                                                                    
                                                                                                    
                                                                                                    
                                                                                                    
                                                                                                    
                                                                                                    
                                                                                                    
                                                                                                    
                                                                                                    
                                                                                                    
                                                                                                    
                                                                                                    
                                                                                                    
                                                                                                    
                                                                                                    
                                                                                                    
                                                                                                    
                                                                                                    
                           
<?xpacket end="w"?></metadata>
<defs>
    <style>
      .cls-1 {
        fill: #61ac61;
        fill-rule: evenodd;
      }
    </style>
  </defs>
  <path class="cls-1" d="M512.649,1170h-21.3a0.353,0.353,0,0,0-.351.35v21.3a0.353,0.353,0,0,0,.351.35h21.3a0.353,0.353,0,0,0,.351-0.35v-21.3A0.353,0.353,0,0,0,512.649,1170Zm-0.351,21.3H491.7v-11.7h20.6v11.7Zm0-12.4H491.7v-8.2h20.6v8.2Zm-18.573-.71a1.285,1.285,0,1,0-1.287-1.28A1.282,1.282,0,0,0,493.725,1178.19Zm0-1.87a0.585,0.585,0,1,1-.585.59A0.585,0.585,0,0,1,493.725,1176.32Zm1.655-1.41a1.755,1.755,0,1,0-1.755-1.75A1.751,1.751,0,0,0,495.38,1174.91Zm0-2.8a1.05,1.05,0,1,1-1.053,1.05A1.052,1.052,0,0,1,495.38,1172.11Zm14.895,0.58a0.47,0.47,0,1,1-.468.47A0.468,0.468,0,0,1,510.275,1172.69Zm-3.31,0a0.47,0.47,0,1,1-.468.47A0.468,0.468,0,0,1,506.965,1172.69ZM502,1174.91a1.755,1.755,0,1,0-1.755-1.75A1.751,1.751,0,0,0,502,1174.91Zm0-2.8a1.05,1.05,0,1,1-1.053,1.05A1.052,1.052,0,0,1,502,1172.11Zm-8.275,15.68a0.353,0.353,0,0,0,.351-0.35v-6.79a0.351,0.351,0,0,0-.7,0v6.79A0.353,0.353,0,0,0,493.725,1187.79Zm-0.936,1.4h0.585v1.05a0.351,0.351,0,1,0,.7,0v-1.05h0.585a0.35,0.35,0,1,0,0-.7h-1.872A0.35,0.35,0,1,0,492.789,1189.19Zm17.486-1.4a0.353,0.353,0,0,0,.351-0.35v-6.79a0.351,0.351,0,0,0-.7,0v6.79A0.353,0.353,0,0,0,510.275,1187.79Zm-0.936,1.4h0.585v1.05a0.351,0.351,0,1,0,.7,0v-1.05h0.585a0.35,0.35,0,1,0,0-.7h-1.872A0.35,0.35,0,1,0,509.339,1189.19Zm-13.591-12.28a1.287,1.287,0,1,0,1.287-1.29A1.282,1.282,0,0,0,495.748,1176.91Zm1.872,0a0.585,0.585,0,1,1-.585-0.59A0.583,0.583,0,0,1,497.62,1176.91Zm-0.585,8.07a0.353,0.353,0,0,0,.351-0.35v-3.98a0.351,0.351,0,0,0-.7,0v3.98A0.353,0.353,0,0,0,497.035,1184.98Zm-0.936,1.4h0.585v3.86a0.351,0.351,0,1,0,.7,0v-3.86h0.585a0.346,0.346,0,0,0,.351-0.35,0.353,0.353,0,0,0-.351-0.35H496.1a0.353,0.353,0,0,0-.351.35A0.346,0.346,0,0,0,496.1,1186.38Zm4.246-8.19a1.285,1.285,0,1,0-1.287-1.28A1.282,1.282,0,0,0,500.345,1178.19Zm0-1.87a0.585,0.585,0,1,1-.585.59A0.585,0.585,0,0,1,500.345,1176.32Zm0,11.47a0.353,0.353,0,0,0,.351-0.35v-6.79a0.351,0.351,0,0,0-.7,0v6.79A0.353,0.353,0,0,0,500.345,1187.79Zm-0.936,1.4h0.585v1.05a0.351,0.351,0,1,0,.7,0v-1.05h0.585a0.35,0.35,0,1,0,0-.7h-1.872A0.35,0.35,0,1,0,499.409,1189.19Zm2.959-12.28a1.287,1.287,0,1,0,1.287-1.29A1.282,1.282,0,0,0,502.368,1176.91Zm1.872,0a0.585,0.585,0,1,1-.585-0.59A0.583,0.583,0,0,1,504.24,1176.91Zm6.035,1.28a1.285,1.285,0,1,0-1.287-1.28A1.282,1.282,0,0,0,510.275,1178.19Zm0-1.87a0.585,0.585,0,1,1-.585.59A0.585,0.585,0,0,1,510.275,1176.32Zm-3.31,1.87a1.285,1.285,0,1,0-1.287-1.28A1.282,1.282,0,0,0,506.965,1178.19Zm0-1.87a0.585,0.585,0,1,1-.585.59A0.585,0.585,0,0,1,506.965,1176.32Zm-3.31,8.66a0.353,0.353,0,0,0,.351-0.35v-3.98a0.351,0.351,0,0,0-.7,0v3.98A0.353,0.353,0,0,0,503.655,1184.98Zm-0.936,1.4H503.3v3.86a0.351,0.351,0,1,0,.7,0v-3.86h0.585a0.346,0.346,0,0,0,.351-0.35,0.353,0.353,0,0,0-.351-0.35h-1.872a0.353,0.353,0,0,0-.351.35A0.346,0.346,0,0,0,502.719,1186.38Zm4.246-1.4a0.353,0.353,0,0,0,.351-0.35v-3.98a0.351,0.351,0,0,0-.7,0v3.98A0.353,0.353,0,0,0,506.965,1184.98Zm-0.936,1.4h0.585v3.86a0.351,0.351,0,1,0,.7,0v-3.86H507.9a0.346,0.346,0,0,0,.351-0.35,0.353,0.353,0,0,0-.351-0.35h-1.872a0.353,0.353,0,0,0-.351.35A0.346,0.346,0,0,0,506.029,1186.38Z" transform="translate(-491 -1170)"/>
</svg>
