<svg xmlns="http://www.w3.org/2000/svg" width="24.031" height="24" viewBox="0 0 24.031 24">
  <metadata><?xpacket begin="﻿" id="W5M0MpCehiHzreSzNTczkc9d"?>
<x:xmpmeta xmlns:x="adobe:ns:meta/" x:xmptk="Adobe XMP Core 5.6-c138 79.159824, 2016/09/14-01:09:01        ">
   <rdf:RDF xmlns:rdf="http://www.w3.org/1999/02/22-rdf-syntax-ns#">
      <rdf:Description rdf:about=""/>
   </rdf:RDF>
</x:xmpmeta>
                                                                                                    
                                                                                                    
                                                                                                    
                                                                                                    
                                                                                                    
                                                                                                    
                                                                                                    
                                                                                                    
                                                                                                    
                                                                                                    
                                                                                                    
                                                                                                    
                                                                                                    
                                                                                                    
                                                                                                    
                                                                                                    
                                                                                                    
                                                                                                    
                                                                                                    
                                                                                                    
                           
<?xpacket end="w"?></metadata>
<defs>
    <style>
      .cls-1 {
        fill: #61ac61;
        fill-rule: evenodd;
      }
    </style>
  </defs>
  <path id="Forma_1" data-name="Forma 1" class="cls-1" d="M663.852,1180.64l-11.494-11.49a0.5,0.5,0,0,0-.717,0l-11.494,11.49a0.511,0.511,0,0,0,0,.72l11.494,11.49a0.5,0.5,0,0,0,.716,0l8.286-8.28a0.511,0.511,0,0,0,0-.72,0.5,0.5,0,0,0-.716,0L652,1191.78,641.222,1181,652,1170.22l11.136,11.14a0.5,0.5,0,0,0,.717,0A0.512,0.512,0,0,0,663.852,1180.64Zm-9.787.49a0.5,0.5,0,0,0,.716,0l1.552-1.55a0.511,0.511,0,0,0,0-.72l-1.552-1.55a0.5,0.5,0,0,0-.716.71l0.688,0.69h-5.8a0.509,0.509,0,0,0-.506.51v6.67a0.507,0.507,0,0,0,1.013,0v-6.17h5.294l-0.688.69A0.511,0.511,0,0,0,654.065,1181.13Z" transform="translate(-640 -1169)"/>
</svg>
