<svg xmlns="http://www.w3.org/2000/svg" width="33" height="15" viewBox="0 0 33 15">
  <metadata><?xpacket begin="﻿" id="W5M0MpCehiHzreSzNTczkc9d"?>
<x:xmpmeta xmlns:x="adobe:ns:meta/" x:xmptk="Adobe XMP Core 5.6-c138 79.159824, 2016/09/14-01:09:01        ">
   <rdf:RDF xmlns:rdf="http://www.w3.org/1999/02/22-rdf-syntax-ns#">
      <rdf:Description rdf:about=""/>
   </rdf:RDF>
</x:xmpmeta>
                                                                                                    
                                                                                                    
                                                                                                    
                                                                                                    
                                                                                                    
                                                                                                    
                                                                                                    
                                                                                                    
                                                                                                    
                                                                                                    
                                                                                                    
                                                                                                    
                                                                                                    
                                                                                                    
                                                                                                    
                                                                                                    
                                                                                                    
                                                                                                    
                                                                                                    
                                                                                                    
                           
<?xpacket end="w"?></metadata>
<defs>
    <style>
      .cls-1 {
        fill: #61ac61;
        fill-rule: evenodd;
      }
    </style>
  </defs>
  <path id="Forma_1" data-name="Forma 1" class="cls-1" d="M360.978,1112h-5.145a0.319,0.319,0,0,1-.325-0.31v-1.21H339.491v1.21a0.318,0.318,0,0,1-.325.31h-5.145a0.319,0.319,0,0,1-.325-0.31v-1.21h-0.625a2.032,2.032,0,0,1-2.071-1.99v-7.95a2.032,2.032,0,0,1,2.071-1.99H351.6a5.472,5.472,0,0,1,7.632,0h2.7a2.032,2.032,0,0,1,2.071,1.99v7.95a2.032,2.032,0,0,1-2.071,1.99H361.3v1.21A0.318,0.318,0,0,1,360.978,1112Zm-4.82-.63h4.5v-0.89h-4.5v0.89Zm-21.812,0h4.5v-0.89h-4.5v0.89Zm26.632-1.51h0.951a1.4,1.4,0,0,0,1.421-1.37v-7.95a1.4,1.4,0,0,0-1.421-1.37h-2.155a5.064,5.064,0,0,1,.917,2.16h0a5,5,0,0,1,.067.73h0v0.01h0v0.01h0v0.01h0c0,0.02,0,.04,0,0.06h0a5.264,5.264,0,0,1-5.3,5.16h-0.095a5.263,5.263,0,0,1-5.3-5.16h0v-0.07h0v-0.01h0v-0.01a5,5,0,0,1,.067-0.73h0a5.039,5.039,0,0,1,.917-2.16H333.071a1.4,1.4,0,0,0-1.421,1.37v1.68h13a0.31,0.31,0,1,1,0,.62h-13v1.36h13a0.315,0.315,0,1,1,0,.63h-13v1.36h13a0.31,0.31,0,1,1,0,.62h-13v1.68a1.4,1.4,0,0,0,1.421,1.37h27.907Zm-5.6-3.18h0.076a4.617,4.617,0,0,0,4.659-4.53c0-.02,0-0.04,0-0.06h0v-0.01h0v-0.01h0a4.349,4.349,0,0,0-.066-0.68,4.73,4.73,0,0,0-9.261.01,4.225,4.225,0,0,0-.065.67h0v0.01h0v0.01h0c0,0.02,0,.04,0,0.06A4.617,4.617,0,0,0,355.375,1106.68Zm0.038-.94a3.587,3.587,0,1,1,3.718-3.59A3.66,3.66,0,0,1,355.413,1105.74Zm0-6.54a2.957,2.957,0,1,0,3.068,2.95A3.013,3.013,0,0,0,355.413,1099.2Zm0,5.56a2.607,2.607,0,1,1,2.7-2.61A2.661,2.661,0,0,1,355.413,1104.76Zm0-4.59a1.981,1.981,0,1,0,2.054,1.98A2.021,2.021,0,0,0,355.413,1100.17Z" transform="translate(-331 -1097)"/>
</svg>
