<svg xmlns="http://www.w3.org/2000/svg" width="23" height="21" viewBox="0 0 23 21">
  <metadata><?xpacket begin="﻿" id="W5M0MpCehiHzreSzNTczkc9d"?>
<x:xmpmeta xmlns:x="adobe:ns:meta/" x:xmptk="Adobe XMP Core 5.6-c138 79.159824, 2016/09/14-01:09:01        ">
   <rdf:RDF xmlns:rdf="http://www.w3.org/1999/02/22-rdf-syntax-ns#">
      <rdf:Description rdf:about=""/>
   </rdf:RDF>
</x:xmpmeta>
                                                                                                    
                                                                                                    
                                                                                                    
                                                                                                    
                                                                                                    
                                                                                                    
                                                                                                    
                                                                                                    
                                                                                                    
                                                                                                    
                                                                                                    
                                                                                                    
                                                                                                    
                                                                                                    
                                                                                                    
                                                                                                    
                                                                                                    
                                                                                                    
                                                                                                    
                                                                                                    
                           
<?xpacket end="w"?></metadata>
<defs>
    <style>
      .cls-1 {
        fill: #61ac61;
        fill-rule: evenodd;
      }
    </style>
  </defs>
  <path id="Forma_1" data-name="Forma 1" class="cls-1" d="M505.258,1028.51H485.742a1.789,1.789,0,0,1-1.742-1.83v-13.85a1.789,1.789,0,0,1,1.742-1.83h19.516a1.789,1.789,0,0,1,1.742,1.83v13.85A1.789,1.789,0,0,1,505.258,1028.51Zm-19.516-16.78a1.073,1.073,0,0,0-1.045,1.1v13.85a1.073,1.073,0,0,0,1.045,1.1h19.516a1.073,1.073,0,0,0,1.045-1.1v-13.85a1.073,1.073,0,0,0-1.045-1.1H485.742Zm14.2,20.26h-8.886a0.36,0.36,0,0,1,0-.72h8.886A0.36,0.36,0,0,1,499.943,1031.99Zm-4.443,0a0.354,0.354,0,0,1-.348-0.36v-3.49a0.348,0.348,0,1,1,.7,0v3.49A0.354,0.354,0,0,1,495.5,1031.99Z" transform="translate(-484 -1011)"/>
</svg>
