<svg xmlns="http://www.w3.org/2000/svg" width="22" height="21.97" viewBox="0 0 22 21.97">
  <metadata><?xpacket begin="﻿" id="W5M0MpCehiHzreSzNTczkc9d"?>
<x:xmpmeta xmlns:x="adobe:ns:meta/" x:xmptk="Adobe XMP Core 5.6-c138 79.159824, 2016/09/14-01:09:01        ">
   <rdf:RDF xmlns:rdf="http://www.w3.org/1999/02/22-rdf-syntax-ns#">
      <rdf:Description rdf:about=""/>
   </rdf:RDF>
</x:xmpmeta>
                                                                                                    
                                                                                                    
                                                                                                    
                                                                                                    
                                                                                                    
                                                                                                    
                                                                                                    
                                                                                                    
                                                                                                    
                                                                                                    
                                                                                                    
                                                                                                    
                                                                                                    
                                                                                                    
                                                                                                    
                                                                                                    
                                                                                                    
                                                                                                    
                                                                                                    
                                                                                                    
                           
<?xpacket end="w"?></metadata>
<defs>
    <style>
      .cls-1 {
        fill: #61ac61;
        fill-rule: evenodd;
      }
    </style>
  </defs>
  <path class="cls-1" d="M359,1279.17v-3.9h-0.467a5.37,5.37,0,0,0-3.7,1.46h-6.467v-5.86h9.319a0.584,0.584,0,0,0,.254-1.11l-9.78-4.72a0.358,0.358,0,0,0-.319,0l-9.78,4.72a0.584,0.584,0,0,0,.253,1.11h9.319v5.86h-6.467a5.37,5.37,0,0,0-3.7-1.46H337v3.9a1.973,1.973,0,0,0,1.734,1.95l-1.356,5.42a0.37,0.37,0,0,0,.266.45,0.365,0.365,0,0,0,.445-0.27l1.313-5.25,1.648,5.27a0.367,0.367,0,0,0,.7-0.22l-1.685-5.39h2.8v-0.46a5.452,5.452,0,0,0-.284-1.74H345.8v1.47h1.1v2.93a2.939,2.939,0,0,1-2.933,2.94h-0.734a0.365,0.365,0,1,0,0,.73h9.534a0.365,0.365,0,1,0,0-.73h-0.734a2.939,2.939,0,0,1-2.933-2.94v-2.93h1.1v-1.47h3.217a5.452,5.452,0,0,0-.284,1.74v0.46H355.6l-1.353,5.41a0.371,0.371,0,0,0,.267.45,0.366,0.366,0,0,0,.445-0.27l1.313-5.25,1.648,5.27a0.366,0.366,0,1,0,.7-0.22l-1.684-5.39h0.1A1.966,1.966,0,0,0,359,1279.17Zm-11-13.4,9.031,4.36H338.969Zm-8.432,14.63h-0.6a1.232,1.232,0,0,1-1.235-1.23v-3.16a4.623,4.623,0,0,1,2.989,1.31l0.037,0.04a4.726,4.726,0,0,1,.945,1.36l0.091,0.2a4.614,4.614,0,0,1,.331,1.48h-2.558Zm9.9-.73h-1.1v3.66a3.673,3.673,0,0,0,1.466,2.94h-3.666a3.675,3.675,0,0,0,1.466-2.94v-3.66h-1.1v-0.74h2.934v0.74Zm0.733-1.47h-7.928a5.135,5.135,0,0,0-.455-0.73h12.366a5.227,5.227,0,0,0-.455.73H350.2Zm4,0.72,0.091-.2a4.726,4.726,0,0,1,.945-1.36l0.037-.04a4.621,4.621,0,0,1,2.989-1.31v3.16a1.232,1.232,0,0,1-1.235,1.23h-3.158A4.64,4.64,0,0,1,354.205,1278.92Z" transform="translate(-337 -1265.03)"/>
</svg>
